# xmcd CD database file
# Copyright (C) 1997 Ti Kan
# 
# Track frame offsets:
#     202
#     13662
#     31667
#     47507
#     65202
#     76727
#     92617
#     106115
#     125130
#     139357
#     160630
#     178460
#     194115
#     208020
#     229352
# 
# Disc length: 3362 seconds
# 
# Revision: 1
# Processed by: cddbd v1.4b41PL1 Copyright (c) Steve Scherf et al.
# Submitted via: DiscPlay 4.0.3
# 
DISCID=d40d200f
DTITLE=Carol Fran and Clarence Hollimon - Soul Sensation!
DYEAR=1900
DGENRE=
TTITLE0=Golden Girl
TTITLE1=Push-Pull
TTITLE2=I'll Make Your Life Sunshine
TTITLE3=Blues For Carol
TTITLE4=Box With The Hole In The Middle
TTITLE5=My Happiness
TTITLE6=I Needs To Be Be'd With
TTITLE7=Anytime, Anyplace, Anywhere
TTITLE8=Forgive Me, But My Heart Is Broken
TTITLE9=Bring It On Home To Me - Old Folks Jam
TTITLE10=I Had A Talk With My Man
TTITLE11=Gristle
TTITLE12=Mother's Love
TTITLE13=Tin-Tin-De-O
TTITLE14=This Little Light
EXTD=
EXTT0=
EXTT1=
EXTT2=
EXTT3=
EXTT4=
EXTT5=
EXTT6=
EXTT7=
EXTT8=
EXTT9=
EXTT10=
EXTT11=
EXTT12=
EXTT13=
EXTT14=
PLAYORDER=
